<svg width="33" height="33" viewBox="0 0 33 33" fill="none" xmlns="http://www.w3.org/2000/svg">
<g clip-path="url(#clip0_505_93)">
<path d="M15.0026 16.2088C15.0026 16.6621 15.1828 17.0968 15.5034 17.4173C15.8241 17.7378 16.259 17.9179 16.7125 17.9179C17.1659 17.9179 17.6008 17.7378 17.9215 17.4173C18.2421 17.0968 18.4223 16.6621 18.4223 16.2088C18.4223 15.7555 18.2421 15.3207 17.9215 15.0002C17.6008 14.6797 17.1659 14.4996 16.7125 14.4996C16.259 14.4996 15.8241 14.6797 15.5034 15.0002C15.1828 15.3207 15.0026 15.7555 15.0026 16.2088ZM22.1269 16.2088C22.1269 16.6621 22.3071 17.0968 22.6277 17.4173C22.9484 17.7378 23.3833 17.9179 23.8368 17.9179C24.2902 17.9179 24.7251 17.7378 25.0458 17.4173C25.3665 17.0968 25.5466 16.6621 25.5466 16.2088C25.5466 15.7555 25.3665 15.3207 25.0458 15.0002C24.7251 14.6797 24.2902 14.4996 23.8368 14.4996C23.3833 14.4996 22.9484 14.6797 22.6277 15.0002C22.3071 15.3207 22.1269 15.7555 22.1269 16.2088ZM7.8783 16.2088C7.8783 16.6621 8.05844 17.0968 8.3791 17.4173C8.69976 17.7378 9.13466 17.9179 9.58814 17.9179C10.0416 17.9179 10.4765 17.7378 10.7972 17.4173C11.1178 17.0968 11.298 16.6621 11.298 16.2088C11.298 15.7555 11.1178 15.3207 10.7972 15.0002C10.4765 14.6797 10.0416 14.4996 9.58814 14.4996C9.13466 14.4996 8.69976 14.6797 8.3791 15.0002C8.05844 15.3207 7.8783 15.7555 7.8783 16.2088ZM31.4313 10.0273C30.6262 8.11523 29.4721 6.39896 28.0009 4.92482C26.5401 3.45922 24.8058 2.29424 22.8964 1.49585C20.9372 0.673319 18.8569 0.256714 16.7125 0.256714H16.6412C14.4825 0.267396 12.3916 0.694683 10.4252 1.53501C8.53216 2.34159 6.81416 3.50864 5.36698 4.97111C3.91006 6.44169 2.76661 8.15084 1.97581 10.0558C1.15651 12.0285 0.7433 14.1257 0.753986 16.2835C0.766074 18.7564 1.35133 21.1927 2.46382 23.4014V28.8137C2.46382 29.2481 2.63646 29.6647 2.94375 29.9719C3.25105 30.2791 3.66783 30.4517 4.10241 30.4517H9.52046C11.73 31.5637 14.1674 32.1487 16.6412 32.1608H16.716C18.8497 32.1608 20.9194 31.7478 22.8679 30.9395C24.7677 30.1506 26.4954 28.9992 27.9546 27.5497C29.4258 26.0933 30.5835 24.3913 31.3921 22.4934C32.2328 20.5279 32.6602 18.4378 32.6709 16.28C32.6816 14.1115 32.2613 12.0071 31.4313 10.0273ZM26.0489 25.6233C23.5518 28.0945 20.239 29.4547 16.7125 29.4547H16.6519C14.5039 29.444 12.3702 28.9099 10.4858 27.9057L10.1866 27.7455H5.17106V22.732L5.01077 22.4329C4.00624 20.5493 3.47191 18.4164 3.46123 16.2693C3.44698 12.7192 4.80416 9.38641 7.29411 6.8761C9.78049 4.36579 13.104 2.97711 16.6555 2.96286H16.716C18.4971 2.96286 20.2247 3.30825 21.8526 3.99191C23.4414 4.65777 24.8662 5.6156 26.0916 6.84049C27.3134 8.06182 28.2752 9.48967 28.9413 11.0778C29.6324 12.7228 29.9779 14.4676 29.9708 16.2693C29.9494 19.8158 28.5566 23.1379 26.0489 25.6233Z" fill="#F2F2F2"/>
</g>
<defs>
<clipPath id="clip0_505_93">
<rect width="31.9169" height="31.9041" fill="white" transform="translate(0.754028 0.256714)"/>
</clipPath>
</defs>
</svg>
