<svg width="33" height="33" viewBox="0 0 33 33" fill="none" xmlns="http://www.w3.org/2000/svg">
<path d="M31.1153 17.0508C31.7855 16.1914 32.1566 15.1383 32.1566 14.0427C32.1566 12.3045 31.1552 10.6591 29.5434 9.74163C29.1284 9.50546 28.656 9.38116 28.1749 9.38159H18.6078L18.8472 4.62366C18.903 3.47386 18.4841 2.38213 17.6703 1.54978C17.2708 1.13953 16.789 0.813111 16.2544 0.590708C15.7198 0.368306 15.144 0.254643 14.5623 0.256742C12.4877 0.256742 10.6525 1.61173 10.102 3.55129L6.67487 15.5913H1.5163C0.810139 15.5913 0.239624 16.1449 0.239624 16.8301V30.922C0.239624 31.6072 0.810139 32.1608 1.5163 32.1608H25.5059C25.8729 32.1608 26.232 32.0911 26.5631 31.9517C28.4622 31.1659 29.687 29.3657 29.687 27.368C29.687 26.8802 29.6152 26.4002 29.4715 25.9356C30.1418 25.0762 30.5128 24.0232 30.5128 22.9276C30.5128 22.4398 30.441 21.9597 30.2974 21.4951C30.9677 20.6357 31.3387 19.5827 31.3387 18.4871C31.3307 17.9993 31.2589 17.5154 31.1153 17.0508ZM3.11215 29.3734V18.3787H6.34374V29.3734H3.11215ZM28.5021 15.7074L27.6283 16.443L28.1829 17.4263C28.3656 17.7502 28.4603 18.114 28.4582 18.4832C28.4582 19.122 28.1709 19.7298 27.6762 20.1479L26.8025 20.8835L27.357 21.8668C27.5397 22.1907 27.6345 22.5544 27.6323 22.9237C27.6323 23.5625 27.3451 24.1703 26.8504 24.5884L25.9766 25.3239L26.5312 26.3073C26.7139 26.6312 26.8086 26.9949 26.8065 27.3642C26.8065 28.2313 26.2798 29.0134 25.466 29.3695H8.89709V18.2548L12.8668 4.29847C12.9691 3.94075 13.1889 3.62516 13.4927 3.39952C13.7965 3.17387 14.1678 3.05047 14.5504 3.04801C14.8536 3.04801 15.1528 3.13318 15.3922 3.30739C15.7872 3.59387 15.9986 4.02747 15.9747 4.48816L15.5917 12.169H28.135C28.8452 12.591 29.284 13.3033 29.284 14.0427C29.284 14.6815 28.9968 15.2854 28.5021 15.7074Z" fill="#F2F2F2"/>
</svg>
