<svg width="21" height="11" viewBox="0 0 21 11" fill="none" xmlns="http://www.w3.org/2000/svg">
<path d="M15.625 0.291656H11.4583V2.37499H15.625C17.3438 2.37499 18.75 3.78124 18.75 5.49999C18.75 7.21874 17.3438 8.62499 15.625 8.62499H11.4583V10.7083H15.625C18.5 10.7083 20.8333 8.37499 20.8333 5.49999C20.8333 2.62499 18.5 0.291656 15.625 0.291656ZM9.375 8.62499H5.20833C3.48958 8.62499 2.08333 7.21874 2.08333 5.49999C2.08333 3.78124 3.48958 2.37499 5.20833 2.37499H9.375V0.291656H5.20833C2.33333 0.291656 0 2.62499 0 5.49999C0 8.37499 2.33333 10.7083 5.20833 10.7083H9.375V8.62499ZM6.25 4.45832H14.5833V6.54166H6.25V4.45832Z" fill="#F2F2F2"/>
</svg>
