<svg width="33" height="33" viewBox="0 0 33 33" fill="none" xmlns="http://www.w3.org/2000/svg">
<path d="M31.9882 6.79482C31.493 5.51539 30.779 4.35598 29.8861 3.3815C28.9925 2.40411 27.9389 1.62739 26.7827 1.09358C25.5837 0.53786 24.2978 0.253409 22.9995 0.256743C21.1781 0.256743 19.401 0.813263 17.8567 1.86447C17.4873 2.11593 17.1363 2.39213 16.8038 2.69306C16.4713 2.39213 16.1203 2.11593 15.7509 1.86447C14.2066 0.813263 12.4295 0.256743 10.6081 0.256743C9.29655 0.256743 8.02564 0.537064 6.82492 1.09358C5.66484 1.62949 4.6193 2.40038 3.72153 3.3815C2.82745 4.35488 2.11323 5.51457 1.61935 6.79482C1.10582 8.12635 0.843506 9.54032 0.843506 10.9955C0.843506 12.3683 1.09473 13.7987 1.59349 15.2539C2.01097 16.47 2.60948 17.7315 3.37425 19.0053C4.58605 21.0211 6.25227 23.1235 8.3212 25.2548C11.7497 28.7877 15.145 31.2281 15.2891 31.3271L16.1647 31.9537C16.5526 32.2299 17.0513 32.2299 17.4393 31.9537L18.3149 31.3271C18.4589 31.224 21.8505 28.7877 25.2827 25.2548C27.3516 23.1235 29.0179 21.0211 30.2297 19.0053C30.9944 17.7315 31.5966 16.47 32.0104 15.2539C32.5092 13.7987 32.7604 12.3683 32.7604 10.9955C32.7641 9.54032 32.5018 8.12635 31.9882 6.79482ZM16.8038 28.6929C16.8038 28.6929 3.65134 19.2897 3.65134 10.9955C3.65134 6.79482 6.76581 3.38974 10.6081 3.38974C13.3088 3.38974 15.6511 5.07167 16.8038 7.52861C17.9565 5.07167 20.2988 3.38974 22.9995 3.38974C26.8418 3.38974 29.9563 6.79482 29.9563 10.9955C29.9563 19.2897 16.8038 28.6929 16.8038 28.6929Z" fill="#DB0031"/>
</svg>
